<mxfile host="app.diagrams.net" modified="2024-03-18T16:04:35.070Z" agent="Mozilla/5.0 (Windows NT 10.0; Win64; x64) AppleWebKit/537.36 (KHTML, like Gecko) Chrome/122.0.0.0 Safari/537.36" etag="LIf4foiARCOjDgWnjpiU" version="24.0.7" type="device">
  <diagram name="Страница — 1" id="qcwimUHvw6TiCGyQEzTd">
    <mxGraphModel dx="1290" dy="522" grid="1" gridSize="10" guides="1" tooltips="1" connect="1" arrows="1" fold="1" page="1" pageScale="1" pageWidth="827" pageHeight="1169" math="0" shadow="0">
      <root>
        <mxCell id="0" />
        <mxCell id="1" parent="0" />
        <mxCell id="A27y4UM24XpfruE7Dhvw-2" value="" style="shape=waypoint;sketch=0;fillStyle=solid;size=6;pointerEvents=1;points=[];fillColor=none;resizable=0;rotatable=0;perimeter=centerPerimeter;snapToPoint=1;" parent="1" vertex="1">
          <mxGeometry x="290" y="325" width="20" height="20" as="geometry" />
        </mxCell>
        <mxCell id="A27y4UM24XpfruE7Dhvw-4" value="" style="ellipse;whiteSpace=wrap;html=1;" parent="1" vertex="1">
          <mxGeometry x="450" y="310" width="80" height="80" as="geometry" />
        </mxCell>
        <mxCell id="A27y4UM24XpfruE7Dhvw-6" value="" style="curved=1;endArrow=classic;html=1;rounded=0;exitX=0.692;exitY=0.415;exitDx=0;exitDy=0;exitPerimeter=0;" parent="1" source="A27y4UM24XpfruE7Dhvw-2" target="A27y4UM24XpfruE7Dhvw-4" edge="1">
          <mxGeometry width="50" height="50" relative="1" as="geometry">
            <mxPoint x="370" y="310" as="sourcePoint" />
            <mxPoint x="420" y="260" as="targetPoint" />
            <Array as="points">
              <mxPoint x="370" y="260" />
            </Array>
          </mxGeometry>
        </mxCell>
        <mxCell id="A27y4UM24XpfruE7Dhvw-7" value="giveInfo" style="text;html=1;strokeColor=none;fillColor=none;align=center;verticalAlign=middle;whiteSpace=wrap;rounded=0;" parent="1" vertex="1">
          <mxGeometry x="354" y="270" width="60" height="30" as="geometry" />
        </mxCell>
        <mxCell id="A27y4UM24XpfruE7Dhvw-8" value="Made" style="text;html=1;strokeColor=none;fillColor=none;align=center;verticalAlign=middle;whiteSpace=wrap;rounded=0;" parent="1" vertex="1">
          <mxGeometry x="460" y="335" width="60" height="30" as="geometry" />
        </mxCell>
        <mxCell id="A27y4UM24XpfruE7Dhvw-9" value="" style="ellipse;whiteSpace=wrap;html=1;" parent="1" vertex="1">
          <mxGeometry x="590" y="310" width="80" height="80" as="geometry" />
        </mxCell>
        <mxCell id="A27y4UM24XpfruE7Dhvw-11" value="" style="curved=1;endArrow=classic;html=1;rounded=0;" parent="1" source="A27y4UM24XpfruE7Dhvw-4" target="A27y4UM24XpfruE7Dhvw-9" edge="1">
          <mxGeometry width="50" height="50" relative="1" as="geometry">
            <mxPoint x="495.0386106164624" y="298.66888493169915" as="sourcePoint" />
            <mxPoint x="611.7937538840895" y="309.9979182701893" as="targetPoint" />
            <Array as="points">
              <mxPoint x="510" y="270" />
              <mxPoint x="600" y="270" />
            </Array>
          </mxGeometry>
        </mxCell>
        <mxCell id="A27y4UM24XpfruE7Dhvw-12" value="payMoney" style="text;html=1;strokeColor=none;fillColor=none;align=center;verticalAlign=middle;whiteSpace=wrap;rounded=0;" parent="1" vertex="1">
          <mxGeometry x="530" y="240" width="60" height="30" as="geometry" />
        </mxCell>
        <mxCell id="7W0IwEg1cDdravUFRM9P-1" value="Paid" style="text;html=1;align=center;verticalAlign=middle;whiteSpace=wrap;rounded=0;" parent="1" vertex="1">
          <mxGeometry x="600" y="335" width="60" height="30" as="geometry" />
        </mxCell>
        <mxCell id="7W0IwEg1cDdravUFRM9P-2" value="" style="ellipse;whiteSpace=wrap;html=1;aspect=fixed;" parent="1" vertex="1">
          <mxGeometry x="810" y="275" width="80" height="80" as="geometry" />
        </mxCell>
        <mxCell id="7W0IwEg1cDdravUFRM9P-3" value="" style="curved=1;endArrow=classic;html=1;rounded=0;" parent="1" source="A27y4UM24XpfruE7Dhvw-9" target="7W0IwEg1cDdravUFRM9P-2" edge="1">
          <mxGeometry width="50" height="50" relative="1" as="geometry">
            <mxPoint x="660" y="300" as="sourcePoint" />
            <mxPoint x="710" y="250" as="targetPoint" />
            <Array as="points">
              <mxPoint x="660" y="260" />
              <mxPoint x="770" y="230" />
            </Array>
          </mxGeometry>
        </mxCell>
        <mxCell id="7W0IwEg1cDdravUFRM9P-4" value="cooking/delivering" style="text;html=1;align=center;verticalAlign=middle;whiteSpace=wrap;rounded=0;" parent="1" vertex="1">
          <mxGeometry x="710" y="210" width="60" height="30" as="geometry" />
        </mxCell>
        <mxCell id="7W0IwEg1cDdravUFRM9P-5" value="Delivered" style="text;html=1;align=center;verticalAlign=middle;whiteSpace=wrap;rounded=0;" parent="1" vertex="1">
          <mxGeometry x="820" y="300" width="60" height="30" as="geometry" />
        </mxCell>
        <mxCell id="7W0IwEg1cDdravUFRM9P-10" value="" style="ellipse;whiteSpace=wrap;html=1;" parent="1" vertex="1">
          <mxGeometry x="995" y="340" width="10" height="10" as="geometry" />
        </mxCell>
        <mxCell id="7W0IwEg1cDdravUFRM9P-11" value="" style="shape=waypoint;sketch=0;fillStyle=solid;size=6;pointerEvents=1;points=[];fillColor=none;resizable=0;rotatable=0;perimeter=centerPerimeter;snapToPoint=1;" parent="1" vertex="1">
          <mxGeometry x="990" y="335" width="20" height="20" as="geometry" />
        </mxCell>
        <mxCell id="7W0IwEg1cDdravUFRM9P-13" value="" style="curved=1;endArrow=classic;html=1;rounded=0;entryX=0;entryY=0;entryDx=0;entryDy=0;" parent="1" source="7W0IwEg1cDdravUFRM9P-2" target="7W0IwEg1cDdravUFRM9P-10" edge="1">
          <mxGeometry width="50" height="50" relative="1" as="geometry">
            <mxPoint x="820" y="340" as="sourcePoint" />
            <mxPoint x="890" y="360" as="targetPoint" />
            <Array as="points">
              <mxPoint x="960" y="290" />
            </Array>
          </mxGeometry>
        </mxCell>
        <mxCell id="7W0IwEg1cDdravUFRM9P-18" value="" style="ellipse;whiteSpace=wrap;html=1;" parent="1" vertex="1">
          <mxGeometry x="590" y="640" width="80" height="80" as="geometry" />
        </mxCell>
        <mxCell id="7W0IwEg1cDdravUFRM9P-19" value="Cancelled by Customer" style="text;html=1;align=center;verticalAlign=middle;whiteSpace=wrap;rounded=0;" parent="1" vertex="1">
          <mxGeometry x="600" y="665" width="60" height="30" as="geometry" />
        </mxCell>
        <mxCell id="7W0IwEg1cDdravUFRM9P-20" value="" style="curved=1;endArrow=classic;html=1;rounded=0;" parent="1" source="A27y4UM24XpfruE7Dhvw-4" target="7W0IwEg1cDdravUFRM9P-18" edge="1">
          <mxGeometry width="50" height="50" relative="1" as="geometry">
            <mxPoint x="560" y="460" as="sourcePoint" />
            <mxPoint x="610" y="410" as="targetPoint" />
            <Array as="points">
              <mxPoint x="260" y="610" />
            </Array>
          </mxGeometry>
        </mxCell>
        <mxCell id="7W0IwEg1cDdravUFRM9P-22" value="Cancel" style="text;html=1;align=center;verticalAlign=middle;whiteSpace=wrap;rounded=0;" parent="1" vertex="1">
          <mxGeometry x="340" y="430" width="60" height="30" as="geometry" />
        </mxCell>
        <mxCell id="7W0IwEg1cDdravUFRM9P-23" value="" style="curved=1;endArrow=classic;html=1;rounded=0;" parent="1" source="A27y4UM24XpfruE7Dhvw-9" target="7W0IwEg1cDdravUFRM9P-18" edge="1">
          <mxGeometry width="50" height="50" relative="1" as="geometry">
            <mxPoint x="650" y="440" as="sourcePoint" />
            <mxPoint x="780" y="390" as="targetPoint" />
            <Array as="points">
              <mxPoint x="630" y="450" />
            </Array>
          </mxGeometry>
        </mxCell>
        <mxCell id="7W0IwEg1cDdravUFRM9P-25" value="Cancel/Refund" style="text;html=1;align=center;verticalAlign=middle;whiteSpace=wrap;rounded=0;" parent="1" vertex="1">
          <mxGeometry x="650" y="410" width="60" height="30" as="geometry" />
        </mxCell>
        <mxCell id="7W0IwEg1cDdravUFRM9P-26" value="" style="curved=1;endArrow=classic;html=1;rounded=0;" parent="1" source="7W0IwEg1cDdravUFRM9P-2" target="7W0IwEg1cDdravUFRM9P-18" edge="1">
          <mxGeometry width="50" height="50" relative="1" as="geometry">
            <mxPoint x="670" y="420" as="sourcePoint" />
            <mxPoint x="930" y="450" as="targetPoint" />
            <Array as="points">
              <mxPoint x="700" y="500" />
            </Array>
          </mxGeometry>
        </mxCell>
        <mxCell id="7W0IwEg1cDdravUFRM9P-29" value="Cancel&lt;div&gt;[Return order]&lt;/div&gt;&lt;div&gt;/Refund&lt;/div&gt;" style="text;html=1;align=center;verticalAlign=middle;whiteSpace=wrap;rounded=0;" parent="1" vertex="1">
          <mxGeometry x="680" y="555" width="80" height="30" as="geometry" />
        </mxCell>
        <mxCell id="reRWiyPzyCBX3iE0Vpjs-2" value="" style="ellipse;whiteSpace=wrap;html=1;aspect=fixed;" vertex="1" parent="1">
          <mxGeometry x="414" y="480" width="80" height="80" as="geometry" />
        </mxCell>
        <mxCell id="reRWiyPzyCBX3iE0Vpjs-3" value="Cancelled&lt;div&gt;by&lt;/div&gt;&lt;div&gt;Payment System&lt;/div&gt;" style="text;html=1;align=center;verticalAlign=middle;whiteSpace=wrap;rounded=0;" vertex="1" parent="1">
          <mxGeometry x="424" y="505" width="60" height="30" as="geometry" />
        </mxCell>
        <mxCell id="reRWiyPzyCBX3iE0Vpjs-5" value="" style="curved=1;endArrow=classic;html=1;rounded=0;" edge="1" parent="1" source="A27y4UM24XpfruE7Dhvw-9" target="reRWiyPzyCBX3iE0Vpjs-2">
          <mxGeometry width="50" height="50" relative="1" as="geometry">
            <mxPoint x="290" y="540" as="sourcePoint" />
            <mxPoint x="340" y="490" as="targetPoint" />
            <Array as="points">
              <mxPoint x="530" y="420" />
            </Array>
          </mxGeometry>
        </mxCell>
        <mxCell id="reRWiyPzyCBX3iE0Vpjs-6" value="Cancel&lt;div&gt;[Payment didn&#39;t go through]&lt;/div&gt;" style="text;html=1;align=center;verticalAlign=middle;whiteSpace=wrap;rounded=0;rotation=-45;" vertex="1" parent="1">
          <mxGeometry x="450" y="430" width="200" height="30" as="geometry" />
        </mxCell>
        <mxCell id="reRWiyPzyCBX3iE0Vpjs-8" value="Not&lt;div&gt;Delivered&lt;/div&gt;" style="ellipse;whiteSpace=wrap;html=1;aspect=fixed;" vertex="1" parent="1">
          <mxGeometry x="820" y="500" width="80" height="80" as="geometry" />
        </mxCell>
        <mxCell id="reRWiyPzyCBX3iE0Vpjs-9" value="" style="curved=1;endArrow=classic;html=1;rounded=0;" edge="1" parent="1" source="7W0IwEg1cDdravUFRM9P-2" target="reRWiyPzyCBX3iE0Vpjs-8">
          <mxGeometry width="50" height="50" relative="1" as="geometry">
            <mxPoint x="830" y="490" as="sourcePoint" />
            <mxPoint x="990" y="440" as="targetPoint" />
            <Array as="points">
              <mxPoint x="850" y="400" />
            </Array>
          </mxGeometry>
        </mxCell>
        <mxCell id="reRWiyPzyCBX3iE0Vpjs-10" value="Cancel&lt;div&gt;[Delivering problems]&lt;/div&gt;" style="text;html=1;align=center;verticalAlign=middle;whiteSpace=wrap;rounded=0;rotation=-3;" vertex="1" parent="1">
          <mxGeometry x="850" y="420" width="130" height="30" as="geometry" />
        </mxCell>
      </root>
    </mxGraphModel>
  </diagram>
</mxfile>
